User Type,Username,Date,Text
,Arsventure,2012-10-27T00:21Z,"

Thank you!!!

"
,FuZzYknUckLeS,2012-10-27T04:05Z,"Thanks for the album but...
How the F**K do you burn this?!!!
Get a ''line 7'' error with nero, and Burrrrn just errors out altogether!!"
,FuZzYknUckLeS,2012-10-27T04:09Z,Cue file errors in Nero
,C4H8Cl2S,2012-10-27T10:00Z,"@Arsventure
Recommend the program Imgburn.
Best of its kind - absolutely free

It's here:
http://www.imgburn.com/"
,C4H8Cl2S,2012-10-27T10:10Z,"@FuZzYknUckLeS
Recommend the program Imgburn.
Best of its kind - absolutely free

It's here:
http://www.imgburn.com/"
,FuZzYknUckLeS,2012-10-27T22:22Z,"Yeah, thanks, but just got filter errors after loading the cue with Imgburn. I'm telling you, there's a problem with the cue.
This is torture!!! :P"
,C4H8Cl2S,2012-10-28T11:03Z,"@FuZzYknUckLeS
Cue file is quite normal.
Five minutes ago ImgBurn burned CD.
The reason is not cue.

Open with notepad cue - verify it

REM GENRE "" Hard Rock""
REM DATE 2012
REM DISCID 990D910B
REM COMMENT ""ExactAudioCopy v0.99pb5""
PERFORMER ""Black Country Communion""
TITLE ""Afterglow""
FILE ""Black Country Communion - Afterglow.flac"" WAVE
  TRACK 01 AUDIO
    TITLE ""Big Train""
    PERFORMER ""Black Country Communion""
    INDEX 01 00:00:00
  TRACK 02 AUDIO
    TITLE ""This Is Your Time""
    PERFORMER ""Black Country Communion""
    INDEX 00 04:16:30
    INDEX 01 04:17:23
  TRACK 03 AUDIO
    TITLE ""Midnight Sun""
    PERFORMER ""Black Country Communion""
    INDEX 00 08:48:12
    INDEX 01 08:49:38
  TRACK 04 AUDIO
    TITLE ""Confessor""
    PERFORMER ""Black Country Communion""
    INDEX 00 14:06:27
    INDEX 01 14:07:07
  TRACK 05 AUDIO
    TITLE ""Cry Freedom""
    PERFORMER ""Black Country Communion""
    INDEX 00 19:14:21
    INDEX 01 19:15:06
  TRACK 06 AUDIO
    TITLE ""Afterglow""
    PERFORMER ""Black Country Communion""
    INDEX 00 24:22:52
    INDEX 01 24:24:17
  TRACK 07 AUDIO
    TITLE ""Dandelion""
    PERFORMER ""Black Country Communion""
    INDEX 01 30:30:27
  TRACK 08 AUDIO
    TITLE ""The Circle""
    PERFORMER ""Black Country Communion""
    INDEX 00 34:31:20
    INDEX 01 34:32:44
  TRACK 09 AUDIO
    TITLE ""Common Man""
    PERFORMER ""Black Country Communion""
    INDEX 00 41:32:52
    INDEX 01 41:33:69
  TRACK 10 AUDIO
    TITLE ""The Giver""
    PERFORMER ""Black Country Communion""
    INDEX 00 46:59:04
    INDEX 01 47:00:59
  TRACK 11 AUDIO
    TITLE ""Crawl ""
    PERFORMER ""Black Country Communion""
    INDEX 00 52:22:59
    INDEX 01 52:23:62"
